<?xml version="1.0" standalone="no"?>
<!DOCTYPE svg PUBLIC "-//W3C//DTD SVG 20010904//EN"
 "http://www.w3.org/TR/2001/REC-SVG-20010904/DTD/svg10.dtd">
<svg version="1.0" xmlns="http://www.w3.org/2000/svg"
 width="637.000000pt" height="637.000000pt" viewBox="0 0 637.000000 637.000000"
 preserveAspectRatio="xMidYMid meet">
<metadata>
Created by potrace 1.11, written by Peter Selinger 2001-2013
</metadata>
<g transform="translate(0.000000,637.000000) scale(0.100000,-0.100000)"
fill="#000000" stroke="none">
<path d="M3058 6205 c-2 -2 -53 -5 -114 -9 -61 -3 -118 -8 -125 -10 -8 -3 -36
-7 -64 -10 -68 -7 -109 -15 -180 -32 -33 -8 -67 -15 -75 -16 -20 -1 -162 -39
-175 -46 -5 -4 -16 -7 -23 -8 -21 -4 -198 -63 -238 -81 -22 -9 -42 -17 -45
-17 -13 -2 -134 -61 -140 -69 -3 -5 -9 -8 -13 -8 -14 3 -156 -72 -156 -82 0
-6 -3 -8 -6 -4 -3 3 -24 -5 -45 -19 -21 -13 -43 -24 -48 -24 -6 0 -15 -8 -20
-17 -6 -10 -11 -14 -11 -10 0 6 -148 -89 -195 -126 -105 -82 -141 -111 -143
-118 -2 -5 -8 -9 -13 -9 -14 0 -48 -38 -41 -45 4 -4 2 -5 -5 -3 -22 6 -264
-242 -363 -372 -14 -18 -29 -38 -35 -44 -20 -22 -66 -86 -61 -86 2 0 -9 -14
-25 -31 -16 -18 -27 -34 -24 -37 2 -3 -2 -10 -9 -16 -8 -6 -37 -49 -65 -96
-28 -47 -54 -89 -59 -95 -10 -13 -50 -99 -48 -105 0 -3 -9 -18 -20 -35 -20
-29 -40 -76 -35 -84 2 -2 -2 -7 -7 -10 -6 -3 -12 -13 -14 -21 -2 -8 -9 -21
-16 -28 -7 -8 -10 -18 -7 -23 4 -5 2 -9 -2 -9 -5 0 -15 -21 -22 -47 -8 -27
-18 -55 -22 -63 -8 -15 -16 -39 -18 -53 0 -4 -8 -21 -16 -37 -9 -17 -13 -30
-9 -30 4 0 2 -6 -4 -13 -10 -12 -22 -54 -24 -84 -1 -7 -5 -13 -10 -13 -4 0 -7
-3 -6 -7 2 -9 -16 -99 -22 -105 -2 -4 -6 -24 -14 -72 -3 -21 -8 -41 -10 -45
-3 -4 -7 -28 -10 -55 -3 -26 -9 -52 -12 -58 -3 -5 -8 -31 -9 -56 -2 -26 -4
-47 -5 -47 -4 0 -10 -56 -15 -140 -12 -177 -8 -437 9 -595 10 -84 17 -137 22
-160 9 -39 16 -73 19 -95 1 -11 3 -20 5 -20 1 0 3 -9 5 -20 22 -125 34 -165
133 -455 9 -25 20 -48 25 -51 5 -3 8 -9 7 -13 -4 -11 33 -96 42 -96 4 0 5 -7
2 -15 -4 -8 -1 -15 5 -15 6 0 11 -3 10 -7 -2 -16 14 -53 22 -53 5 0 8 -3 7 -8
-4 -12 59 -132 66 -125 3 3 6 -3 6 -14 0 -11 7 -26 15 -33 8 -7 13 -16 10 -20
-3 -4 6 -19 20 -34 13 -14 22 -26 19 -26 -7 0 78 -124 88 -128 4 -2 8 -8 8
-14 0 -9 59 -89 106 -145 11 -12 35 -41 54 -64 106 -129 263 -285 400 -398 38
-32 43 -35 80 -61 19 -13 37 -27 40 -30 3 -4 28 -21 55 -40 28 -19 52 -36 55
-39 7 -8 37 -26 84 -52 21 -11 44 -25 50 -30 17 -15 91 -54 231 -123 168 -81
194 -93 230 -102 17 -4 32 -10 35 -13 11 -14 328 -106 429 -125 14 -3 40 -8
56 -11 17 -3 41 -8 55 -10 14 -3 43 -7 65 -11 22 -3 51 -7 65 -10 132 -24 636
-24 755 0 11 2 42 7 68 10 27 4 92 16 144 26 53 11 105 22 118 24 44 8 273 79
365 113 115 42 434 197 460 223 3 3 21 14 40 24 47 26 222 143 246 164 11 9
44 36 74 59 30 23 69 54 85 69 110 100 130 120 127 126 -1 5 3 8 8 8 6 0 34
25 63 56 29 31 64 69 79 84 15 15 24 30 21 34 -4 3 0 6 8 7 13 0 96 104 199
249 22 30 44 60 49 66 5 7 7 15 4 18 -4 3 -1 6 5 6 6 0 24 23 39 51 16 29 33
59 38 68 20 31 45 81 44 87 0 4 3 10 8 13 11 8 37 63 35 74 -1 4 3 7 8 7 6 0
10 4 10 9 0 5 17 47 39 93 37 79 53 120 51 126 0 1 7 16 15 32 9 17 13 30 10
30 -3 0 6 22 19 49 14 27 22 51 19 55 -3 3 -1 11 4 18 6 7 14 27 18 43 5 17 9
32 10 35 7 21 19 86 17 93 -1 4 3 7 8 7 6 0 10 6 9 13 -2 10 3 37 17 100 1 4
2 8 4 10 1 1 3 11 4 22 6 43 17 101 21 116 3 9 8 36 10 60 3 24 7 58 10 74 23
134 23 542 0 710 -3 22 -7 60 -10 85 -3 25 -7 56 -10 70 -3 14 -8 36 -11 50
-2 14 -7 36 -10 50 -12 53 -15 66 -19 90 -2 14 -13 59 -25 100 -11 41 -22 82
-24 91 -11 43 -61 174 -68 177 -4 2 -6 8 -3 12 3 5 1 17 -5 27 -14 26 -34 77
-32 86 1 4 -3 7 -8 7 -5 0 -9 3 -8 8 3 15 -62 155 -74 160 -5 2 -8 9 -8 16 0
17 -29 74 -41 81 -5 4 -7 11 -4 16 4 5 1 9 -4 9 -6 0 -11 6 -11 13 0 7 -8 22
-17 33 -10 11 -19 25 -20 30 -6 34 -237 351 -299 412 -18 18 -35 36 -36 40 -2
4 -7 6 -11 4 -5 -1 -6 1 -3 6 3 5 -52 66 -122 135 -120 119 -165 159 -242 217
-18 14 -38 30 -44 35 -33 31 -279 195 -291 195 -4 0 -25 13 -48 28 -52 35
-317 165 -372 182 -22 7 -44 15 -50 19 -5 3 -14 6 -20 8 -5 1 -34 11 -64 22
-30 11 -58 18 -62 15 -5 -3 -9 0 -9 5 0 6 -9 11 -19 11 -11 0 -32 5 -48 12
-37 15 -96 31 -158 44 -11 2 -29 6 -40 8 -79 18 -162 34 -175 35 -8 0 -28 2
-45 5 -39 6 -97 14 -159 22 -46 6 -393 13 -398 9z m382 -309 c19 -3 60 -8 90
-12 30 -4 64 -8 75 -10 11 -2 47 -9 80 -14 267 -48 656 -192 853 -317 29 -18
54 -33 57 -33 2 0 41 -25 87 -56 478 -326 813 -737 1031 -1264 62 -151 132
-400 157 -560 6 -41 13 -86 16 -100 27 -158 24 -552 -5 -735 -6 -33 -13 -80
-16 -105 -10 -85 -60 -260 -72 -260 -7 0 -13 5 -13 10 0 15 -48 32 -102 36
-26 3 -72 18 -105 35 -57 30 -60 31 -154 25 l-97 -7 1 41 c1 47 -10 58 -56 55
-41 -3 -126 -14 -152 -19 -19 -3 -72 -12 -140 -22 -16 -3 -57 -9 -90 -15 -33
-6 -71 -13 -85 -14 -14 -2 -50 -9 -80 -15 -30 -6 -64 -13 -75 -14 -11 -2 -40
-7 -63 -10 l-44 -7 4 68 c2 37 30 372 63 743 35 406 56 690 51 712 -9 51 -51
97 -111 123 -28 13 -75 44 -105 69 -76 65 -115 75 -175 46 -25 -12 -56 -35
-67 -51 -28 -37 -48 -37 -48 -1 0 51 -29 131 -53 144 -37 21 -108 19 -140 -4
l-28 -20 -57 30 c-31 16 -97 41 -147 55 -127 36 -144 39 -199 43 -27 2 -73 16
-103 30 -46 23 -69 27 -159 30 -78 2 -109 7 -118 18 -17 21 -50 28 -69 14 -17
-13 -84 -199 -254 -706 -79 -233 -98 -283 -112 -279 -9 3 -44 17 -78 31 -34
14 -92 34 -130 44 -37 9 -71 20 -74 25 -7 9 -123 12 -138 3 -5 -4 -12 -2 -15
3 -11 17 -100 62 -126 63 -30 1 -61 -5 -153 -31 l-69 -19 -9 27 c-6 15 -16 28
-24 29 -8 1 -21 3 -29 4 -11 1 -15 40 -18 197 -4 174 -6 200 -25 236 -11 22
-30 48 -41 58 -28 25 -230 107 -272 110 -19 1 -40 6 -46 9 -17 11 -60 17 -72
10 -5 -4 -14 -23 -19 -42 -15 -59 -37 -49 -52 22 -7 35 -17 69 -23 76 -6 7
-35 12 -73 12 -51 0 -69 -5 -92 -22 -15 -13 -37 -28 -48 -34 -33 -18 -42 -59
-21 -95 17 -28 18 -58 13 -436 -5 -350 -7 -407 -21 -422 -19 -21 -21 -48 -4
-53 9 -3 9 -18 0 -64 -7 -33 -15 -161 -17 -284 -4 -174 -9 -229 -20 -246 -22
-33 -10 -246 30 -572 4 -35 3 -35 -46 1 -49 36 -63 22 -69 -67 -5 -76 -4 -81
23 -115 38 -48 54 -88 62 -158 10 -90 12 -93 51 -93 32 0 34 -3 45 -45 6 -25
14 -46 18 -47 13 -3 58 -6 121 -9 61 -2 68 -5 112 -44 26 -23 63 -50 82 -59
42 -20 155 -35 286 -38 84 -2 101 0 143 22 55 28 142 115 179 180 14 25 47 99
74 165 26 66 48 121 50 123 1 2 21 -16 44 -40 51 -53 97 -145 81 -161 -21 -21
-12 -64 20 -91 17 -14 35 -27 40 -27 12 -2 28 -6 34 -9 3 -1 10 -4 15 -5 6 -1
11 -3 13 -5 5 -4 82 -18 131 -24 11 -2 40 -22 64 -44 29 -29 60 -47 100 -59
93 -27 151 -22 297 28 110 37 136 50 171 85 57 56 46 25 336 987 69 231 106
337 115 337 10 0 13 -10 9 -37 -3 -21 -8 -69 -11 -108 -5 -73 -13 -159 -20
-235 -3 -25 -7 -81 -10 -125 -4 -44 -8 -91 -10 -105 -6 -40 -19 -213 -18 -242
0 -16 20 -52 47 -88 37 -48 46 -69 44 -93 -2 -24 -9 -32 -32 -38 -41 -11 -85
-57 -92 -96 -9 -47 2 -83 26 -83 15 0 90 -82 146 -159 6 -7 120 -7 140 0 17 6
30 -1 65 -37 24 -24 63 -54 87 -65 84 -41 140 -30 432 83 303 117 409 151 767
239 200 49 368 89 373 89 11 0 -39 -98 -89 -175 -218 -337 -494 -619 -813
-830 -54 -36 -100 -65 -102 -65 -3 0 -24 -13 -48 -28 -40 -27 -137 -76 -272
-137 -158 -72 -464 -158 -675 -191 -625 -95 -1292 42 -1826 374 -260 162 -509
381 -700 617 -60 74 -205 280 -205 291 0 3 -8 18 -19 32 -20 30 -126 236 -164
322 -28 62 -80 205 -97 265 -22 79 -39 144 -44 167 -3 12 -12 52 -20 88 -8 36
-17 89 -21 119 -4 30 -9 63 -11 75 -23 122 -24 583 0 701 2 11 9 56 16 100 64
431 275 899 568 1264 80 99 262 287 345 356 27 22 54 45 60 51 36 33 217 160
308 217 336 210 807 362 1189 384 58 3 106 7 108 8 5 5 333 -4 372 -9z"/>
</g>
</svg>
